<?xml version="1.0" encoding="UTF-8" standalone="no"?><!-- Created with Inkscape (http://www.inkscape.org/) -->

<svg
   xmlns:cc="http://creativecommons.org/ns#"
   xmlns:dc="http://purl.org/dc/elements/1.1/"
   xmlns:inkscape="http://www.inkscape.org/namespaces/inkscape"
   xmlns:rdf="http://www.w3.org/1999/02/22-rdf-syntax-ns#"
   xmlns:sodipodi="http://sodipodi.sourceforge.net/DTD/sodipodi-0.dtd"
   xmlns:xlink="http://www.w3.org/1999/xlink"
   height="192"
   id="svg2"
   version="1.1"
   viewBox="0 0 192 192"
   width="192"
   xmlns="http://www.w3.org/2000/svg"
   inkscape:export-filename="/home/joker/Projects/Kunzisoft/Inkscape/Android Icon Template_low"
   inkscape:export-xdpi="22.5"
   inkscape:export-ydpi="22.5"
   inkscape:version="0.92.3 (2405546, 2018-03-11)"
   sodipodi:docname="NaturCyL.svg"
   xml:space="preserve"><sodipodi:namedview
     bordercolor="#666666"
     borderopacity="1"
     gridtolerance="10"
     guidetolerance="10"
     id="namedview4"
     objecttolerance="10"
     pagecolor="#d7d7d7"
     showgrid="false"
     inkscape:bbox-nodes="true"
     inkscape:bbox-paths="true"
     inkscape:current-layer="g10"
     inkscape:cx="120.40359"
     inkscape:cy="81.02239"
     inkscape:object-paths="true"
     inkscape:pageopacity="0"
     inkscape:pageshadow="2"
     inkscape:snap-bbox="true"
     inkscape:snap-bbox-edge-midpoints="true"
     inkscape:snap-bbox-midpoints="true"
     inkscape:snap-intersection-paths="true"
     inkscape:snap-midpoints="true"
     inkscape:snap-smooth-nodes="true"
     inkscape:window-height="1001"
     inkscape:window-maximized="1"
     inkscape:window-width="1920"
     inkscape:window-x="-9"
     inkscape:window-y="-9"
     inkscape:zoom="2.8284272"><inkscape:grid
       empspacing="4"
       id="grid4646"
       type="xygrid" /></sodipodi:namedview><metadata
     id="metadata8"><rdf:RDF><cc:Work
         rdf:about=""><dc:format>image/svg+xml</dc:format><dc:type
           rdf:resource="http://purl.org/dc/dcmitype/StillImage" /><dc:title></dc:title></cc:Work></rdf:RDF></metadata><defs
     id="defs6"><linearGradient
       id="linearGradient7440"
       inkscape:collect="always"><stop
         style="stop-color:#ffffff;stop-opacity:0.03921569"
         id="stop7436"
         offset="0" /><stop
         style="stop-color:#2e7d32;stop-opacity:0;"
         id="stop7438"
         offset="1" /></linearGradient><marker
       style="overflow:visible"
       id="marker11240"
       orient="auto"
       refX="0.0"
       refY="0.0"
       inkscape:isstock="true"
       inkscape:stockid="Arrow1Mstart"><path
         style="fill-rule:evenodd;stroke:#000000;stroke-width:1pt;stroke-opacity:1;fill:#000000;fill-opacity:1"
         d="M 0.0,0.0 L 5.0,-5.0 L -12.5,0.0 L 5.0,5.0 L 0.0,0.0 z "
         id="path11242"
         transform="scale(0.4) translate(10,0)" /></marker><marker
       style="overflow:visible;"
       id="Arrow1Mend"
       orient="auto"
       refX="0.0"
       refY="0.0"
       inkscape:isstock="true"
       inkscape:stockid="Arrow1Mend"><path
         style="fill-rule:evenodd;stroke:#000000;stroke-width:1pt;stroke-opacity:1;fill:#000000;fill-opacity:1"
         d="M 0.0,0.0 L 5.0,-5.0 L -12.5,0.0 L 5.0,5.0 L 0.0,0.0 z "
         id="path10431"
         transform="scale(0.4) rotate(180) translate(10,0)" /></marker><marker
       style="overflow:visible"
       id="marker11224"
       orient="auto"
       refX="0.0"
       refY="0.0"
       inkscape:isstock="true"
       inkscape:stockid="Arrow1Mstart"><path
         style="fill-rule:evenodd;stroke:#000000;stroke-width:1pt;stroke-opacity:1;fill:#000000;fill-opacity:1"
         d="M 0.0,0.0 L 5.0,-5.0 L -12.5,0.0 L 5.0,5.0 L 0.0,0.0 z "
         id="path11226"
         transform="scale(0.4) translate(10,0)" /></marker><marker
       style="overflow:visible"
       id="marker11098"
       orient="auto"
       refX="0.0"
       refY="0.0"
       inkscape:isstock="true"
       inkscape:stockid="Arrow1Mstart"><path
         style="fill-rule:evenodd;stroke:#000000;stroke-width:1pt;stroke-opacity:1;fill:#000000;fill-opacity:1"
         d="M 0.0,0.0 L 5.0,-5.0 L -12.5,0.0 L 5.0,5.0 L 0.0,0.0 z "
         id="path11100"
         transform="scale(0.4) translate(10,0)" /></marker><marker
       style="overflow:visible"
       id="marker10904"
       orient="auto"
       refX="0.0"
       refY="0.0"
       inkscape:isstock="true"
       inkscape:stockid="Arrow1Mstart"><path
         style="fill-rule:evenodd;stroke:#000000;stroke-width:1pt;stroke-opacity:1;fill:#000000;fill-opacity:1"
         d="M 0.0,0.0 L 5.0,-5.0 L -12.5,0.0 L 5.0,5.0 L 0.0,0.0 z "
         id="path10906"
         transform="scale(0.4) translate(10,0)" /></marker><marker
       style="overflow:visible"
       id="marker10888"
       orient="auto"
       refX="0.0"
       refY="0.0"
       inkscape:isstock="true"
       inkscape:stockid="Arrow1Mstart"><path
         style="fill-rule:evenodd;stroke:#000000;stroke-width:1pt;stroke-opacity:1;fill:#000000;fill-opacity:1"
         d="M 0.0,0.0 L 5.0,-5.0 L -12.5,0.0 L 5.0,5.0 L 0.0,0.0 z "
         id="path10890"
         transform="scale(0.4) translate(10,0)" /></marker><marker
       style="overflow:visible"
       id="marker10882"
       orient="auto"
       refX="0.0"
       refY="0.0"
       inkscape:isstock="true"
       inkscape:stockid="Arrow1Mstart"><path
         style="fill-rule:evenodd;stroke:#000000;stroke-width:1pt;stroke-opacity:1;fill:#000000;fill-opacity:1"
         d="M 0.0,0.0 L 5.0,-5.0 L -12.5,0.0 L 5.0,5.0 L 0.0,0.0 z "
         id="path10884"
         transform="scale(0.4) translate(10,0)" /></marker><marker
       style="overflow:visible"
       id="marker10851"
       orient="auto"
       refX="0.0"
       refY="0.0"
       inkscape:isstock="true"
       inkscape:stockid="Arrow1Mstart"><path
         style="fill-rule:evenodd;stroke:#000000;stroke-width:1pt;stroke-opacity:1;fill:#000000;fill-opacity:1"
         d="M 0.0,0.0 L 5.0,-5.0 L -12.5,0.0 L 5.0,5.0 L 0.0,0.0 z "
         id="path10853"
         transform="scale(0.4) translate(10,0)" /></marker><marker
       style="overflow:visible"
       id="Arrow1Mstart"
       orient="auto"
       refX="0.0"
       refY="0.0"
       inkscape:isstock="true"
       inkscape:stockid="Arrow1Mstart"><path
         style="fill-rule:evenodd;stroke:#000000;stroke-width:1pt;stroke-opacity:1;fill:#000000;fill-opacity:1"
         d="M 0.0,0.0 L 5.0,-5.0 L -12.5,0.0 L 5.0,5.0 L 0.0,0.0 z "
         id="path10428"
         transform="scale(0.4) translate(10,0)" /></marker><marker
       style="overflow:visible"
       id="marker10769"
       orient="auto"
       refX="0.0"
       refY="0.0"
       inkscape:isstock="true"
       inkscape:stockid="Arrow2Lstart"><path
         style="fill-rule:evenodd;stroke-width:0.625;stroke-linejoin:round;stroke:#000000;stroke-opacity:1;fill:#000000;fill-opacity:1"
         d="M 8.7185878,4.0337352 L -2.2072895,0.016013256 L 8.7185884,-4.0017078 C 6.9730900,-1.6296469 6.9831476,1.6157441 8.7185878,4.0337352 z "
         id="path10771"
         transform="scale(1.1) translate(1,0)" /></marker><marker
       style="overflow:visible"
       id="Arrow2Mstart"
       orient="auto"
       refX="0.0"
       refY="0.0"
       inkscape:isstock="true"
       inkscape:stockid="Arrow2Mstart"><path
         style="fill-rule:evenodd;stroke-width:0.625;stroke-linejoin:round;stroke:#000000;stroke-opacity:1;fill:#000000;fill-opacity:1"
         d="M 8.7185878,4.0337352 L -2.2072895,0.016013256 L 8.7185884,-4.0017078 C 6.9730900,-1.6296469 6.9831476,1.6157441 8.7185878,4.0337352 z "
         id="path10446"
         transform="scale(0.6) translate(0,0)" /></marker><marker
       style="overflow:visible"
       id="Arrow1Sstart"
       orient="auto"
       refX="0.0"
       refY="0.0"
       inkscape:isstock="true"
       inkscape:stockid="Arrow1Sstart"><path
         style="fill-rule:evenodd;stroke:#000000;stroke-width:1pt;stroke-opacity:1;fill:#000000;fill-opacity:1"
         d="M 0.0,0.0 L 5.0,-5.0 L -12.5,0.0 L 5.0,5.0 L 0.0,0.0 z "
         id="path10434"
         transform="scale(0.2) translate(6,0)" /></marker><marker
       style="overflow:visible"
       id="Arrow2Lstart"
       orient="auto"
       refX="0.0"
       refY="0.0"
       inkscape:isstock="true"
       inkscape:stockid="Arrow2Lstart"><path
         style="fill-rule:evenodd;stroke-width:0.625;stroke-linejoin:round;stroke:#000000;stroke-opacity:1;fill:#000000;fill-opacity:1"
         d="M 8.7185878,4.0337352 L -2.2072895,0.016013256 L 8.7185884,-4.0017078 C 6.9730900,-1.6296469 6.9831476,1.6157441 8.7185878,4.0337352 z "
         id="path10440"
         transform="scale(1.1) translate(1,0)" /></marker><marker
       style="overflow:visible"
       id="Arrow1Lstart"
       orient="auto"
       refX="0.0"
       refY="0.0"
       inkscape:isstock="true"
       inkscape:stockid="Arrow1Lstart"><path
         style="fill-rule:evenodd;stroke:#000000;stroke-width:1pt;stroke-opacity:1;fill:#000000;fill-opacity:1"
         d="M 0.0,0.0 L 5.0,-5.0 L -12.5,0.0 L 5.0,5.0 L 0.0,0.0 z "
         id="path10422"
         transform="scale(0.8) translate(12.5,0)" /></marker><clipPath
       clipPathUnits="userSpaceOnUse"
       id="clipPath16"><path
         d="M 0,192 192,192 192,0 0,0 0,192 Z"
         id="path18"
         inkscape:connector-curvature="0" /></clipPath><clipPath
       clipPathUnits="userSpaceOnUse"
       id="clipPath26"><path
         d="M -4.88281e-4,192 192,192 192,-4.88281e-4 l -192.000488281,0 0,192.000488281 z"
         id="path28"
         inkscape:connector-curvature="0" /></clipPath><clipPath
       clipPathUnits="userSpaceOnUse"
       id="clipPath34"><path
         d="M -4.88281e-4,192 192,192 192,-4.88281e-4 l -192.000488281,0 0,192.000488281 z"
         id="path36"
         inkscape:connector-curvature="0" /></clipPath><clipPath
       clipPathUnits="userSpaceOnUse"
       id="clipPath38"><path
         d="M 0,192 192,192 192,0 0,0 0,192 Z"
         id="path40"
         inkscape:connector-curvature="0" /></clipPath><clipPath
       clipPathUnits="userSpaceOnUse"
       id="clipPath42"><path
         d="M 0,192 192,192 192,0 0,0 0,192 Z"
         id="path44"
         inkscape:connector-curvature="0" /></clipPath><clipPath
       clipPathUnits="userSpaceOnUse"
       id="clipPath116"><path
         d="m 0,192 192,0 0,-192.000488281 -192,0 L 0,192 Z"
         id="path118"
         inkscape:connector-curvature="0" /></clipPath><clipPath
       clipPathUnits="userSpaceOnUse"
       id="clipPath120"><path
         d="m 0,192 192,0 0,-191.999511719 -192,0 L 0,192 Z"
         id="path122"
         inkscape:connector-curvature="0" /></clipPath><clipPath
       clipPathUnits="userSpaceOnUse"
       id="clipPath124"><path
         d="M 192,192 0,192 0,0 l 192,0 0,192 z"
         id="path126"
         inkscape:connector-curvature="0" /></clipPath><filter
       style="color-interpolation-filters:sRGB;"
       id="filter10356"
       inkscape:label="Drop Shadow"><feFlood
         flood-color="rgb(0,0,0)"
         flood-opacity="0.196078"
         id="feFlood10358"
         result="flood" /><feComposite
         id="feComposite10360"
         in="flood"
         in2="SourceGraphic"
         operator="in"
         result="composite1" /><feGaussianBlur
         id="feGaussianBlur10362"
         in="composite1"
         result="blur"
         stdDeviation="4" /><feOffset
         dx="4"
         dy="4"
         id="feOffset10364"
         result="offset" /><feComposite
         id="feComposite10366"
         in="SourceGraphic"
         in2="offset"
         operator="over"
         result="composite2" /></filter><marker
       style="overflow:visible"
       id="Arrow1Sstart-3"
       orient="auto"
       refX="0"
       refY="0"
       inkscape:isstock="true"
       inkscape:stockid="Arrow1Sstart"><path
         style="fill:#000000;fill-opacity:1;fill-rule:evenodd;stroke:#000000;stroke-width:1pt;stroke-opacity:1"
         d="M 0,0 5,-5 -12.5,0 5,5 0,0 Z"
         id="path10434-6"
         transform="matrix(0.2,0,0,0.2,1.2,0)"
         inkscape:connector-curvature="0" /></marker><marker
       style="overflow:visible"
       id="Arrow1Sstart-3-7"
       orient="auto"
       refX="0"
       refY="0"
       inkscape:isstock="true"
       inkscape:stockid="Arrow1Sstart"><path
         style="fill:#000000;fill-opacity:1;fill-rule:evenodd;stroke:#000000;stroke-width:1pt;stroke-opacity:1"
         d="M 0,0 5,-5 -12.5,0 5,5 0,0 Z"
         id="path10434-6-5"
         transform="matrix(0.2,0,0,0.2,1.2,0)"
         inkscape:connector-curvature="0" /></marker><marker
       style="overflow:visible"
       id="Arrow2Mstart-3"
       orient="auto"
       refX="0"
       refY="0"
       inkscape:isstock="true"
       inkscape:stockid="Arrow2Mstart"><path
         style="fill:#000000;fill-opacity:1;fill-rule:evenodd;stroke:#000000;stroke-width:0.625;stroke-linejoin:round;stroke-opacity:1"
         d="M 8.7185878,4.0337352 -2.2072895,0.01601326 8.7185884,-4.0017078 c -1.7454984,2.3720609 -1.7354408,5.6174519 -6e-7,8.035443 z"
         id="path10446-5"
         transform="scale(0.6,0.6)"
         inkscape:connector-curvature="0" /></marker><filter
       style="color-interpolation-filters:sRGB;"
       id="filter6016"
       inkscape:label="Drop Shadow"><feFlood
         flood-color="rgb(0,0,0)"
         flood-opacity="0.239216"
         id="feFlood6018"
         result="flood" /><feComposite
         id="feComposite6020"
         in="flood"
         in2="SourceGraphic"
         operator="in"
         result="composite1" /><feGaussianBlur
         id="feGaussianBlur6022"
         in="composite1"
         result="blur"
         stdDeviation="2" /><feOffset
         dx="0"
         dy="4"
         id="feOffset6024"
         result="offset" /><feComposite
         id="feComposite6026"
         in="SourceGraphic"
         in2="offset"
         operator="over"
         result="fbSourceGraphic" /><feColorMatrix
         id="feColorMatrix6028"
         in="fbSourceGraphic"
         result="fbSourceGraphicAlpha"
         values="0 0 0 -1 0 0 0 0 -1 0 0 0 0 -1 0 0 0 0 1 0" /><feFlood
         flood-color="rgb(0,0,0)"
         flood-opacity="0.121569"
         id="feFlood6030"
         in="fbSourceGraphic"
         result="flood" /><feComposite
         id="feComposite6032"
         in="flood"
         in2="fbSourceGraphic"
         operator="in"
         result="composite1" /><feGaussianBlur
         id="feGaussianBlur6034"
         in="composite1"
         result="blur"
         stdDeviation="2" /><feOffset
         dx="0"
         dy="0"
         id="feOffset6036"
         result="offset" /><feComposite
         id="feComposite6038"
         in="fbSourceGraphic"
         in2="offset"
         operator="over"
         result="composite2" /></filter><filter
       style="color-interpolation-filters:sRGB;"
       id="filter6045"
       inkscape:label="Drop Shadow"><feFlood
         flood-color="rgb(0,0,0)"
         flood-opacity="0.2"
         id="feFlood6047"
         result="flood" /><feComposite
         id="feComposite6049"
         in="flood"
         in2="SourceGraphic"
         operator="in"
         result="composite1" /><feGaussianBlur
         id="feGaussianBlur6051"
         in="composite1"
         result="blur"
         stdDeviation="4" /><feOffset
         dx="0"
         dy="4"
         id="feOffset6053"
         result="offset" /><feComposite
         id="feComposite6055"
         in="SourceGraphic"
         in2="offset"
         operator="over"
         result="composite2" /></filter><filter
       style="color-interpolation-filters:sRGB;"
       id="filter7384"
       inkscape:label="Drop Shadow"><feFlood
         flood-color="rgb(0,0,0)"
         flood-opacity="0.0784314"
         id="feFlood7374"
         result="flood" /><feComposite
         id="feComposite7376"
         in="flood"
         in2="SourceGraphic"
         operator="in"
         result="composite1" /><feGaussianBlur
         id="feGaussianBlur7378"
         in="composite1"
         result="blur"
         stdDeviation="0" /><feOffset
         dx="0"
         dy="1"
         id="feOffset7380"
         result="offset" /><feComposite
         id="feComposite7382"
         in="SourceGraphic"
         in2="offset"
         operator="over"
         result="fbSourceGraphic" /><feColorMatrix
         id="feColorMatrix7386"
         in="fbSourceGraphic"
         result="fbSourceGraphicAlpha"
         values="0 0 0 -1 0 0 0 0 -1 0 0 0 0 -1 0 0 0 0 1 0" /><feFlood
         flood-color="rgb(0,0,0)"
         flood-opacity="0.0784314"
         id="feFlood7388"
         in="fbSourceGraphic"
         result="flood" /><feComposite
         id="feComposite7390"
         in="flood"
         in2="fbSourceGraphic"
         operator="in"
         result="composite1" /><feGaussianBlur
         id="feGaussianBlur7392"
         in="composite1"
         result="blur"
         stdDeviation="4" /><feOffset
         dx="4"
         dy="4"
         id="feOffset7394"
         result="offset" /><feComposite
         id="feComposite7396"
         in="fbSourceGraphic"
         in2="offset"
         operator="over"
         result="composite2" /></filter><filter
       style="color-interpolation-filters:sRGB;"
       id="filter7420"
       inkscape:label="Drop Shadow"><feFlood
         flood-color="rgb(0,0,0)"
         flood-opacity="0.0941176"
         id="feFlood7410"
         result="flood" /><feComposite
         id="feComposite7412"
         in="flood"
         in2="SourceGraphic"
         operator="in"
         result="composite1" /><feGaussianBlur
         id="feGaussianBlur7414"
         in="composite1"
         result="blur"
         stdDeviation="2" /><feOffset
         dx="0"
         dy="4"
         id="feOffset7416"
         result="offset" /><feComposite
         id="feComposite7418"
         in="SourceGraphic"
         in2="offset"
         operator="over"
         result="fbSourceGraphic" /><feColorMatrix
         id="feColorMatrix7422"
         in="fbSourceGraphic"
         result="fbSourceGraphicAlpha"
         values="0 0 0 -1 0 0 0 0 -1 0 0 0 0 -1 0 0 0 0 1 0" /><feFlood
         flood-color="rgb(0,0,0)"
         flood-opacity="0.0470588"
         id="feFlood7424"
         in="fbSourceGraphic"
         result="flood" /><feComposite
         id="feComposite7426"
         in="flood"
         in2="fbSourceGraphic"
         operator="in"
         result="composite1" /><feGaussianBlur
         id="feGaussianBlur7428"
         in="composite1"
         result="blur"
         stdDeviation="2" /><feOffset
         dx="0"
         dy="0"
         id="feOffset7430"
         result="offset" /><feComposite
         id="feComposite7432"
         in="fbSourceGraphic"
         in2="offset"
         operator="over"
         result="composite2" /></filter><radialGradient
       cx="6.4003987"
       cy="-147.1996"
       fx="6.4003987"
       fy="-147.1996"
       gradientTransform="matrix(-5.6361419e-6,0.99999867,-1,-5.6361494e-6,-140.79916,-153.60082)"
       gradientUnits="userSpaceOnUse"
       id="radialGradient7442"
       r="70.399796"
       inkscape:collect="always"
       xlink:href="#linearGradient7440" /></defs><g
     style="display:inline"
     id="g10"
     transform="matrix(1.25,0,0,-1.25,0,192)"
     inkscape:groupmode="layer"
     inkscape:label="Icon Template"><circle
       style="opacity:1;fill:#2e7d32;fill-opacity:1;stroke-width:0.80387765;filter:url(#filter7420)"
       cx="76.799797"
       cy="-76.800201"
       id="path3454"
       r="70.399796"
       transform="scale(1,-1)" /><path
       style="opacity:1;fill:#ffffff;fill-opacity:0.07843137;stroke-width:1.00484705"
       d="M 96,8 A 87.999744,87.999744 0 0 0 8,96 87.999744,87.999744 0 0 0 8.0214844,96.585938 87.999744,87.999744 0 0 1 96,9 87.999744,87.999744 0 0 1 183.97852,96.414062 87.999744,87.999744 0 0 0 184,96 87.999744,87.999744 0 0 0 96,8 Z"
       id="circle3456"
       transform="matrix(0.8,0,0,-0.8,0,153.6)"
       inkscape:connector-curvature="0" /><path
       style="opacity:1;fill:#000000;fill-opacity:0.07843137;stroke-width:1.00484705"
       d="M 183.97852,95.414062 A 87.999744,87.999744 0 0 1 96,183 87.999744,87.999744 0 0 1 8.0214844,95.585938 87.999744,87.999744 0 0 0 8,96 a 87.999744,87.999744 0 0 0 88,88 87.999744,87.999744 0 0 0 88,-88 87.999744,87.999744 0 0 0 -0.0215,-0.585938 z"
       id="circle3464"
       transform="matrix(0.8,0,0,-0.8,0,153.6)"
       inkscape:connector-curvature="0" /><path
       style="fill:#000000;fill-opacity:0.07843138;stroke-width:5.66528559"
       d="M 107.33008 56.449219 C 92.614404 74.082676 80.062099 98.713315 67.673828 79.109375 L 33.681641 124.43164 L 102.90234 183.69727 A 87.999744 87.999744 0 0 0 180.75586 119.31641 L 107.33008 56.449219 z "
       id="path948"
       transform="matrix(0.8,0,0,-0.8,0,153.6)" /><path
       style="fill:#2e7d32;fill-opacity:1;stroke-width:1.47121203"
       d="m 100.48879,54 v 6.267356 c -0.691463,-0.250146 -1.427117,-0.382324 -2.206828,-0.382324 -3.678068,0 -6.620476,2.942409 -6.620476,6.620475 0,1.868416 0.735583,3.545601 2.00088,4.751985 -0.338267,0.794426 -0.529427,1.677184 -0.529427,2.604074 0,3.678064 2.942408,6.620471 6.620474,6.620471 2.295087,0 4.325317,-1.177033 5.516997,-2.942407 0.11796,0 0.23522,0 0.36811,0 a 8.0916667,8.0916667 0 0 0 8.09164,-8.091714 8.0916667,8.0916667 0 0 0 -8.09164,-8.091644 c -0.73559,0 -1.47125,0.103043 -2.20682,0.309129 v -7.664975 z"
       id="path1007"
       inkscape:connector-curvature="0" /><path
       style="display:inline;fill:#ffffff;stroke-width:4.53222847;filter:url(#filter7384)"
       d="M 85.86443,108.3867 C 71.25265,90.014849 64.27821,74.139069 54.13885,90.25784 L 26.94548,54 h 99.70904 z"
       id="path948-3"
       inkscape:connector-curvature="0"
       sodipodi:nodetypes="ccccc" /><path
       style="display:inline;fill:#ffffff;fill-opacity:0.07843138;stroke-width:5.66528559"
       d="M 107.33008 56.517578 C 89.065353 79.482392 80.348028 99.326198 67.673828 79.177734 L 33.681641 124.5 L 34.431641 124.5 L 67.673828 80.177734 C 80.348028 100.3262 89.065353 80.482392 107.33008 57.517578 L 157.56836 124.5 L 158.31836 124.5 L 107.33008 56.517578 z "
       id="path7369"
       transform="matrix(0.8,0,0,-0.8,0,153.6)" /><circle
       style="opacity:1;fill:url(#radialGradient7442);fill-opacity:1;stroke-width:0.80387765"
       cx="76.799797"
       cy="-76.800201"
       id="circle7434"
       r="70.399796"
       transform="scale(1,-1)" /><path
       style="display:inline;fill:#2e7d32;fill-opacity:1;stroke-width:1.47121203"
       d="m 100.48879,53.999999 v 6.26736 c -0.691463,-0.250151 -1.427113,-0.382321 -2.206823,-0.382321 -3.67807,0 -6.62048,2.9424 -6.62048,6.62047 0,1.86842 0.73558,3.5456 2.00088,4.75199 -0.33827,0.79442 -0.52943,1.677181 -0.52943,2.60407 0,3.67806 2.94241,6.62047 6.62048,6.62047 2.295083,0 4.325313,-1.17703 5.516993,-2.94241 0.11796,0 0.23522,0 0.36811,0 a 8.0916664,8.0916664 0 0 0 8.09164,-8.09171 8.0916664,8.0916664 0 0 0 -8.09164,-8.09164 c -0.73559,0 -1.47125,0.10304 -2.20682,0.30912 v -7.66497 z"
       id="path1007-4"
       inkscape:connector-curvature="0" /><path
       style="display:inline;fill:#ffffff;fill-opacity:0.07843138;stroke-width:1.83901501"
       d="M 124.69141 91.396484 C 120.09382 91.396484 116.41602 95.076253 116.41602 99.673828 C 116.41602 99.839433 116.4318 100.00087 116.44141 100.16406 C 116.7026 95.808445 120.26583 92.396484 124.69141 92.396484 C 127.56026 92.396484 130.09829 93.869447 131.58789 96.076172 L 132.04883 96.076172 A 10.114583 10.114583 0 0 1 142.14062 105.60352 A 10.114583 10.114583 0 0 0 142.16211 105.18945 A 10.114583 10.114583 0 0 0 132.04883 95.076172 L 131.58789 95.076172 C 130.09829 92.869447 127.56026 91.396484 124.69141 91.396484 z M 116.8125 103.20703 C 115.3983 104.69029 114.57617 106.66924 114.57617 108.86719 C 114.57617 109.03459 114.59194 109.19845 114.60156 109.36328 C 114.72468 107.23223 115.6119 105.32569 117.07812 103.92773 C 116.97835 103.69343 116.89107 103.45291 116.8125 103.20703 z "
       id="path7467"
       transform="matrix(0.8,0,0,-0.8,0,153.6)" /></g></svg>